# xmcd
#
# Track frame offsets:
#	182
#	17285
#	40035
#	58182
#	80180
#	95455
#	109145
#	122265
#	138302
#	156520
#
# Disc length: 2329 seconds
#
# Revision: 1
# Processed by: cddbd v1.5.2PL0 Copyright (c) Steve Scherf et al.
# Submitted via: audiograbber 1.83.01
#
DISCID=7b09170a
DTITLE=Kim Weston - Investigate
DYEAR=1990
DGENRE=Oldies
TTITLE0=Investigate
TTITLE1=My Heart's Not Made Of Stone
TTITLE2=It Should Have Been Me
TTITLE3=Restless Feet
TTITLE4=Take Me In Your Arms (Rock Me A Little While)
TTITLE5=Dancing In The Street
TTITLE6=Helpless
TTITLE7=Emotion
TTITLE8=Signal Your Intention
TTITLE9=Who's Gonna Have The Last Laugh
EXTD=
EXTT0=
EXTT1=
EXTT2=
EXTT3=
EXTT4=
EXTT5=
EXTT6=
EXTT7=
EXTT8=
EXTT9=
PLAYORDER=
